<svg xmlns="http://www.w3.org/2000/svg" width="16" height="16" fill="none"><path fill="#B5B5B5" d="M0 0h16v16H0z"/><path fill="#fff" d="M-1248-60H192v496h-1440z"/><mask id="a" fill="#fff"><path d="M-266-20a4 4 0 0 1 4-4H32a4 4 0 0 1 4 4v56a4 4 0 0 1-4 4h-294a4 4 0 0 1-4-4v-56Z"/></mask><path fill="#EF4040" d="M-266-20a4 4 0 0 1 4-4H32a4 4 0 0 1 4 4v56a4 4 0 0 1-4 4h-294a4 4 0 0 1-4-4v-56Z"/><path fill="#FFBEBE" d="M-266-24H36h-302ZM36 36a6 6 0 0 1-6 6h-290a6 6 0 0 1-6-6c0 1.105 1.791 2 4 2H32c2.21 0 4-.895 4-2Zm-302 4v-64 64ZM36-24v64-64Z" mask="url(#a)"/><path fill="#fff" d="M2.146 2.854a.5.5 0 0 1 .708-.708L8 7.293l5.146-5.147a.501.501 0 0 1 .708.708L8.707 8l5.147 5.146a.5.5 0 1 1-.708.708L8 8.707l-5.146 5.147a.5.5 0 1 1-.708-.708L7.293 8 2.146 2.854Z"/></svg>